<svg width="77" height="40" viewBox="0 0 77 40" fill="none" xmlns="http://www.w3.org/2000/svg">
<path d="M75.1951 12.2696C74.185 9.83002 72.726 7.66721 70.8145 5.78116C68.9311 3.8951 66.7777 2.45665 64.3542 1.47604C61.9307 0.492013 59.3739 0 56.6839 0C53.9938 0 51.4546 0.492013 49.0732 1.47604C46.6918 2.46007 44.5454 3.8951 42.6339 5.78116C42.2727 6.14333 41.929 6.51234 41.5993 6.8916C40.9855 7.60229 40.8978 8.61365 41.3748 9.41659L42.7146 11.6785C43.5493 13.0828 45.5835 13.1511 46.5445 11.8254C46.9057 11.3266 47.3055 10.8448 47.744 10.3835C50.206 7.78679 53.1872 6.48843 56.6839 6.48843C60.1806 6.48843 63.1968 7.78679 65.6449 10.3835C68.0929 12.9803 69.3169 16.1374 69.3169 19.8616C69.3169 23.5859 68.0859 26.7908 65.6238 29.3978C63.1617 32.0082 60.1806 33.31 56.6804 33.31C53.1802 33.31 50.2025 32.0048 47.7404 29.3978C46.6287 28.219 45.7694 26.9241 45.1626 25.5164L37.3836 9.9701C37.359 9.91885 37.331 9.8676 37.2994 9.81635C36.4401 8.35739 35.395 7.00777 34.1534 5.78116C32.27 3.8951 30.1166 2.45665 27.6931 1.47604C25.2696 0.492013 22.7128 0 20.0228 0C17.3327 0 14.7935 0.492013 12.4121 1.47604C10.0307 2.46007 7.88426 3.8951 5.97282 5.78116C4.03683 7.72188 2.55327 9.89835 1.53266 12.3106C0.50855 14.7228 0 17.2649 0 19.9402C0 22.6155 0.512057 25.2498 1.53266 27.6894C2.55327 30.129 4.03683 32.3055 5.97282 34.2188C7.88426 36.1049 10.0307 37.5434 12.4121 38.524C14.7935 39.508 17.3292 40 20.0228 40C22.7163 40 25.2696 39.508 27.6931 38.524C28.0894 38.3634 28.4787 38.1891 28.861 38.0046C30.8145 37.0582 32.5752 35.7974 34.1534 34.2154C34.4059 33.966 34.6514 33.7097 34.8899 33.4467C35.5388 32.7326 35.644 31.6973 35.1565 30.8738L33.7255 28.4582C32.9119 27.0847 30.9198 26.9685 29.9518 28.2429C29.6501 28.6393 29.3205 29.0254 28.9697 29.3978C27.9667 30.4604 26.8759 31.3078 25.6975 31.9399C23.9895 32.8556 22.0991 33.31 20.0263 33.31C16.5261 33.31 13.5484 32.0048 11.0864 29.3978C8.62428 26.7874 7.39325 23.6098 7.39325 19.8616C7.39325 16.1134 8.62428 12.9803 11.0864 10.3835C13.5484 7.78679 16.5296 6.48843 20.0263 6.48843C23.523 6.48843 26.5392 7.78679 28.9873 10.3835C30.1938 11.6614 31.1021 13.0759 31.7159 14.6271C31.7334 14.675 31.758 14.7228 31.779 14.7706L39.5616 30.3203C39.5967 30.3887 39.6352 30.457 39.6738 30.5219C40.5015 31.8442 41.487 33.0777 42.6374 34.212C44.5489 36.0981 46.6953 37.5365 49.0767 38.5171C51.4581 39.5012 53.9938 39.9932 56.6874 39.9932C59.3809 39.9932 61.9342 39.5012 64.3577 38.5171C66.7812 37.5331 68.9311 36.0981 70.818 34.212C72.7295 32.326 74.1885 30.1563 75.1986 27.7031C76.2086 25.2499 76.7137 22.6634 76.7137 19.9368C76.7137 17.2102 76.2086 14.7057 75.1986 12.2696H75.1951Z" fill="#27AAE1"/>
</svg>
