<svg width="206" height="40" viewBox="0 0 206 40" fill="none" xmlns="http://www.w3.org/2000/svg">
    <g clip-path="url(#clip0_2_3)">
        <path d="M14.9319 17.0223H20.1692C21.0449 17.0223 21.7559 16.3298 21.7559 15.4766V13.986C21.7559 13.1328 21.0449 12.4402 20.1692 12.4402H14.9319C14.0734 12.4402 14.1374 12.4402 13.392 12.4378V6.81804C13.392 6.76772 13.3895 6.71499 13.3846 6.66706V1.55053C13.3846 0.69738 12.6737 0.00479126 11.7955 0.00479126H9.96036C9.08216 0.00479126 8.37123 0.69738 8.37123 1.55293V6.65268C8.36631 6.7078 8.36139 6.76292 8.36139 6.81804V12.4306C7.94566 12.4474 7.68982 12.445 6.819 12.445H1.58667C0.710927 12.445 0 13.1376 0 13.9908V15.4766C0 16.3298 0.710927 17.0223 1.58667 17.0223H8.36385V29.4362C8.36385 32.8009 9.34045 35.322 11.2937 36.9948C13.2469 38.6675 16.1865 39.5039 20.1126 39.5039H20.1692C21.0449 39.5039 21.7559 38.8113 21.7559 37.9582V36.4124C21.7559 35.5593 21.0449 34.8667 20.1692 34.8667C17.7904 34.8667 16.0586 34.3658 14.9738 33.3641C13.8889 32.3623 13.3453 30.7759 13.3453 28.6046V17.0199C13.8192 17.0199 14.3481 17.0199 14.9319 17.0199V17.0223Z" fill="#27AAE1" />
        <path d="M80.6324 39.5039C79.7567 39.5039 79.0482 38.8137 79.0482 37.9606V23.8643C79.0482 20.1857 80.0396 17.2812 82.0223 15.1483C84.005 13.0154 86.6741 11.9489 90.0344 11.9489C91.7514 11.9489 93.3381 12.3036 94.7919 13.0106C95.7611 13.4827 96.6418 14.0986 97.4339 14.8631C97.7439 15.1603 98.322 15.7953 98.5433 16.1117C98.5433 16.1117 99.3699 15.1722 99.6897 14.8655C100.499 14.089 101.387 13.4659 102.351 12.9962C103.786 12.2988 105.362 11.9489 107.079 11.9489C110.4 11.9489 113.057 13.0202 115.05 15.1627C117.04 17.3051 118.036 20.2073 118.036 23.8643V37.9606C118.036 38.8137 117.328 39.5039 116.452 39.5039H114.693C113.817 39.5039 113.109 38.8137 113.109 37.9606V22.9537C113.109 21.0604 112.55 19.5339 111.438 18.374C110.324 17.2165 108.87 16.6365 107.077 16.6365C105.284 16.6365 103.83 17.2165 102.715 18.374C101.601 19.5315 101.045 21.058 101.045 22.9537V37.9606C101.045 38.8137 100.337 39.5039 99.4609 39.5039H97.702C96.8263 39.5039 96.1178 38.8137 96.1178 37.9606V22.9537C96.1178 21.0604 95.552 19.5339 94.418 18.374C93.284 17.2141 91.8228 16.6365 90.0295 16.6365C88.2361 16.6365 86.7602 17.2165 85.6557 18.374C84.5511 19.5315 84.0001 21.058 84.0001 22.9537V37.9606C84.0001 38.8137 83.2916 39.5039 82.4159 39.5039H80.63H80.6324Z" fill="#27AAE1" />
        <path d="M151.231 25.9325C151.231 24.0561 151.59 22.2731 152.306 20.5812C153.022 18.8892 154.062 17.3627 155.42 16.0014C156.761 14.6786 158.266 13.6696 159.936 12.9819C161.607 12.2917 163.385 11.9466 165.275 11.9466C167.164 11.9466 168.955 12.2917 170.655 12.9819C172.354 13.672 173.862 14.6786 175.186 16.0014C176.526 17.3243 177.55 18.8437 178.258 20.5524C178.967 22.2635 179.321 24.0561 179.321 25.9301C179.321 27.8042 178.967 29.6591 178.258 31.3774C177.55 33.0981 176.526 34.6175 175.186 35.9427C173.865 37.2656 172.354 38.2745 170.655 38.9623C168.955 39.6525 167.161 39.9976 165.275 39.9976C163.388 39.9976 161.607 39.6525 159.936 38.9623C158.266 38.2721 156.761 37.2656 155.42 35.9427C154.062 34.6007 153.022 33.0741 152.306 31.363C151.587 29.6519 151.231 27.8426 151.231 25.9278V25.9325ZM156.411 25.8774C156.411 28.5064 157.275 30.7375 159.002 32.5661C160.729 34.397 162.82 35.3101 165.275 35.3101C167.73 35.3101 169.818 34.3946 171.547 32.5661C173.274 30.7351 174.138 28.5064 174.138 25.8774C174.138 23.2485 173.279 21.0509 171.562 19.2295C169.845 17.4082 167.749 16.4975 165.277 16.4975C162.805 16.4975 160.734 17.4082 159.004 19.2295C157.275 21.0509 156.414 23.2652 156.414 25.8774H156.411Z" fill="#27AAE1" />
        <path d="M177.114 25.9325C177.114 24.0561 177.474 22.2731 178.189 20.5812C178.905 18.8892 179.946 17.3627 181.304 16.0014C182.644 14.6786 184.15 13.6696 185.82 12.9819C187.49 12.2917 189.269 11.9466 191.158 11.9466C193.047 11.9466 194.838 12.2917 196.538 12.9819C198.238 13.672 199.746 14.6786 201.069 16.0014C202.41 17.3243 203.433 18.8437 204.142 20.5524C204.85 22.2611 205.205 24.0561 205.205 25.9301C205.205 27.8042 204.85 29.6591 204.142 31.3774C203.433 33.0981 202.41 34.6175 201.069 35.9427C199.748 37.2656 198.238 38.2745 196.538 38.9623C194.838 39.6525 193.045 39.9976 191.158 39.9976C189.271 39.9976 187.49 39.6525 185.82 38.9623C184.15 38.2721 182.644 37.2656 181.304 35.9427C179.946 34.6007 178.905 33.0741 178.189 31.363C177.471 29.6519 177.114 27.8426 177.114 25.9278V25.9325ZM182.295 25.8774C182.295 28.5064 183.158 30.7375 184.885 32.5661C186.612 34.397 188.703 35.3101 191.158 35.3101C193.613 35.3101 195.702 34.3946 197.431 32.5661C199.158 30.7351 200.021 28.5064 200.021 25.8774C200.021 23.2485 199.163 21.0509 197.446 19.2295C195.729 17.4082 193.633 16.4975 191.161 16.4975C188.688 16.4975 186.617 17.4082 184.888 19.2295C183.158 21.0509 182.297 23.2652 182.297 25.8774H182.295Z" fill="#27AAE1" />
        <path d="M126.083 10.0677C126.083 6.70301 125.106 4.18189 123.153 2.50914C121.2 0.836379 118.26 0 114.334 0H114.277C113.401 0 112.691 0.692588 112.691 1.54574V3.09148C112.691 3.94464 113.401 4.63723 114.277 4.63723C116.656 4.63723 118.388 5.1381 119.473 6.13983C120.557 7.14157 121.101 8.72805 121.101 10.8993H121.089V23.8116C121.089 26.2393 121.207 28.0606 121.443 29.2732C121.679 30.4859 122.07 31.6002 122.619 32.6116C123.79 34.9098 125.487 36.7168 127.716 38.0325C129.942 39.3481 132.397 40.0048 135.079 40.0048C139.098 40.0048 142.426 38.6819 145.059 36.0338C147.691 33.3856 149.009 30.021 149.009 25.9373C149.009 23.5288 148.476 21.3217 147.41 19.3182C146.343 17.3147 144.8 15.6324 142.781 14.2712C141.723 13.5546 140.545 12.9986 139.241 12.6032C137.937 12.2078 136.626 12.0113 135.305 12.0113C133.984 12.0113 132.609 12.1622 131.354 12.4666C130.434 12.6895 129.549 12.9962 128.695 13.3916C128.137 13.6505 127.773 14.1921 127.773 14.796V16.3106C127.773 17.4561 129.007 18.1775 130.063 17.6742C130.449 17.4897 130.838 17.3315 131.226 17.1949C132.397 16.7899 133.585 16.5886 134.793 16.5886C137.475 16.5886 139.669 17.4537 141.376 19.1816C143.083 20.9095 143.939 23.1454 143.939 25.8846C143.939 28.6238 143.108 31.0658 141.447 32.8225C139.787 34.5791 137.625 35.4562 134.963 35.4562C132.301 35.4562 130.205 34.5791 128.565 32.8225C126.921 31.0658 126.102 28.7724 126.102 25.9397V10.0677" fill="#27AAE1" />
        <path d="M126.083 10.0677C126.083 6.70301 125.106 4.18189 123.153 2.50914C121.2 0.836379 118.26 0 114.334 0H114.277C113.401 0 112.691 0.692588 112.691 1.54574V3.09148C112.691 3.94464 113.401 4.63723 114.277 4.63723C116.656 4.63723 118.388 5.1381 119.473 6.13983C120.557 7.14157 121.101 8.72805 121.101 10.8993H121.089V23.8116C121.089 26.2393 121.207 28.0606 121.443 29.2732C121.679 30.4859 122.07 31.6002 122.619 32.6116C123.79 34.9098 125.487 36.7168 127.716 38.0325C129.942 39.3481 132.397 40.0048 135.079 40.0048C139.098 40.0048 142.426 38.6819 145.059 36.0338C147.691 33.3856 149.009 30.021 149.009 25.9373C149.009 23.5288 148.476 21.3217 147.41 19.3182C146.343 17.3147 144.8 15.6324 142.781 14.2712C141.723 13.5546 140.545 12.9986 139.241 12.6032C137.937 12.2078 136.626 12.0113 135.305 12.0113C133.984 12.0113 132.609 12.1622 131.354 12.4666C130.434 12.6895 129.549 12.9962 128.695 13.3916C128.137 13.6505 127.773 14.1921 127.773 14.796V16.3106C127.773 17.4561 129.007 18.1775 130.063 17.6742C130.449 17.4897 130.838 17.3315 131.226 17.1949C132.397 16.7899 133.585 16.5886 134.793 16.5886C137.475 16.5886 139.669 17.4537 141.376 19.1816C143.083 20.9095 143.939 23.1454 143.939 25.8846C143.939 28.6238 143.108 31.0658 141.447 32.8225C139.787 34.5791 137.625 35.4562 134.963 35.4562C132.301 35.4562 130.205 34.5791 128.565 32.8225C126.921 31.0658 126.102 28.7724 126.102 25.9397V10.0677" fill="#27AAE1" />
        <path d="M75.5452 20.5548C74.8368 18.8437 73.8134 17.3267 72.4727 16.0038C71.1517 14.681 69.6413 13.672 67.9415 12.9842C66.2417 12.294 64.4484 11.9489 62.5616 11.9489C60.6748 11.9489 58.8938 12.294 57.2235 12.9842C55.5532 13.6744 54.0477 14.681 52.707 16.0038C52.4536 16.2578 52.2125 16.5167 51.9813 16.7827C51.5508 17.2812 51.4893 17.9905 51.8239 18.5537L52.7636 20.1402C53.349 21.1251 54.7758 21.1731 55.4499 20.2432C55.7032 19.8933 55.9837 19.5554 56.2912 19.2319C58.018 17.4106 60.109 16.4999 62.5616 16.4999C65.0142 16.4999 67.1297 17.4106 68.8468 19.2319C70.5638 21.0532 71.4223 23.2676 71.4223 25.8798C71.4223 28.492 70.5589 30.7399 68.832 32.5684C67.1051 34.3993 65.0142 35.3124 62.5591 35.3124C60.1041 35.3124 58.0156 34.3969 56.2887 32.5684C55.5089 31.7416 54.9062 30.8334 54.4806 29.846L49.0244 18.9419C49.0072 18.906 48.9875 18.87 48.9654 18.8341C48.3627 17.8108 47.6297 16.8642 46.7588 16.0038C45.4378 14.681 43.9274 13.672 42.2276 12.9842C40.5278 12.294 38.7344 11.9489 36.8477 11.9489C34.9609 11.9489 33.1799 12.294 31.5096 12.9842C29.8392 13.6744 28.3338 14.681 26.9931 16.0038C25.6352 17.365 24.5946 18.8916 23.8788 20.5835C23.1605 22.2755 22.8038 24.0585 22.8038 25.9349C22.8038 27.8114 23.1629 29.6591 23.8788 31.3702C24.5946 33.0813 25.6352 34.6078 26.9931 35.9499C28.3338 37.2727 29.8392 38.2817 31.5096 38.9695C33.1799 39.6597 34.9584 40.0048 36.8477 40.0048C38.7369 40.0048 40.5278 39.6597 42.2276 38.9695C42.5056 38.8568 42.7786 38.7346 43.0468 38.6052C44.4169 37.9414 45.6518 37.0571 46.7588 35.9475C46.9359 35.7725 47.1081 35.5928 47.2754 35.4083C47.7305 34.9074 47.8043 34.1813 47.4624 33.6037L46.4587 31.9094C45.888 30.946 44.4907 30.8645 43.8118 31.7584C43.6002 32.0364 43.369 32.3072 43.123 32.5684C42.4195 33.3137 41.6544 33.9081 40.8279 34.3514C39.6299 34.9937 38.304 35.3124 36.8501 35.3124C34.3951 35.3124 32.3066 34.3969 30.5797 32.5684C28.8528 30.7375 27.9894 28.5088 27.9894 25.8798C27.9894 23.2508 28.8528 21.0532 30.5797 19.2319C32.3066 17.4106 34.3975 16.4999 36.8501 16.4999C39.3027 16.4999 41.4183 17.4106 43.1353 19.2319C43.9815 20.1282 44.6187 21.1203 45.0492 22.2084C45.0615 22.2419 45.0787 22.2755 45.0934 22.309L50.5521 33.2155C50.5767 33.2634 50.6037 33.3113 50.6308 33.3569C51.2113 34.2843 51.9026 35.1495 52.7095 35.9451C54.0501 37.268 55.5556 38.2769 57.2259 38.9647C58.8962 39.6549 60.6748 40 62.564 40C64.4533 40 66.2441 39.6549 67.944 38.9647C69.6438 38.2745 71.1517 37.268 72.4752 35.9451C73.8159 34.6222 74.8392 33.1004 75.5477 31.3798C76.2562 29.6591 76.6104 27.8449 76.6104 25.9325C76.6104 24.0201 76.2562 22.2635 75.5477 20.5548H75.5452Z" fill="#27AAE1" />
    </g>
    <defs>
        <clipPath id="clip0_2_3">
            <rect width="205.202" height="40" fill="white" />
        </clipPath>
    </defs>
</svg>