<svg width="124" height="89" viewBox="0 0 124 89" fill="none" xmlns="http://www.w3.org/2000/svg">
    <path opacity="0.3" d="M44.0771 4.95332C44.0771 7.72292 41.6365 12.836 36.7553 20.2926C31.9718 27.6427 29.58 31.5308 29.58 31.9569C29.58 33.0221 30.4586 33.9808 32.2158 34.833C33.9731 35.6852 36.1208 36.6439 38.659 37.7092C41.1972 38.7744 43.7354 40.1592 46.2737 41.8636C48.9095 43.4614 51.106 45.9647 52.8633 49.3734C54.6205 52.7822 55.4991 56.83 55.4991 61.5171C55.4991 69.6128 52.9121 76.2172 47.738 81.3303C42.6616 86.4434 36.072 89 27.9692 89C20.1593 89 13.5209 86.2304 8.05396 80.6912C2.68465 75.0455 0 68.1747 0 60.079C0 50.8115 1.70842 41.544 5.12525 32.2765C8.6397 22.9025 13.2768 15.1795 19.0366 9.10772C24.8941 3.03591 30.8979 0 37.0482 0C41.7342 0 44.0771 1.65111 44.0771 4.95332ZM111.584 4.95332C111.584 7.72292 109.143 12.836 104.262 20.2926C99.4786 27.6427 97.0868 31.5308 97.0868 31.9569C97.0868 32.9156 97.7214 33.7678 98.9905 34.5135C100.26 35.2591 101.87 35.9515 103.823 36.5907C105.775 37.2298 107.825 38.1885 109.973 39.4668C112.219 40.7451 114.317 42.2364 116.27 43.9408C118.222 45.5386 119.833 47.8821 121.102 50.9713C122.371 54.0604 123.006 57.5757 123.006 61.5171C123.006 69.6128 120.419 76.2172 115.245 81.3303C110.168 86.4434 103.579 89 95.476 89C87.6661 89 81.0277 86.2304 75.5608 80.6912C70.1915 75.0455 67.5068 68.1747 67.5068 60.079C67.5068 50.8115 69.2152 41.544 72.6321 32.2765C76.1465 22.9025 80.7837 15.1795 86.5435 9.10772C92.4009 3.03591 98.4048 0 104.555 0C109.241 0 111.584 1.65111 111.584 4.95332Z" fill="#00315E" />
</svg>